<svg width="141" height="33" viewBox="0 0 141 33" fill="none" xmlns="http://www.w3.org/2000/svg">
<path d="M2.17383 9.63477H0.710938V7.17383H2.47461L3.17188 2.29297H5.63281V7.17383H8.64062V9.63477H5.63281V21.6113C5.63281 22.0215 5.66927 22.3542 5.74219 22.6094C5.82422 22.8555 5.93359 23.0514 6.07031 23.1973C6.20703 23.334 6.36654 23.4251 6.54883 23.4707C6.73112 23.5163 6.92253 23.5391 7.12305 23.5391C7.46029 23.5391 7.75651 23.498 8.01172 23.416C8.27604 23.334 8.52669 23.2201 8.76367 23.0742V24.9883C8.56315 25.2344 8.3444 25.4349 8.10742 25.5898C7.87956 25.7448 7.64258 25.8724 7.39648 25.9727C7.15039 26.0638 6.89974 26.1276 6.64453 26.1641C6.38932 26.2005 6.13867 26.2188 5.89258 26.2188C5.40951 26.2188 4.94466 26.1549 4.49805 26.0273C4.05143 25.8997 3.65495 25.6582 3.30859 25.3027C2.96224 24.9382 2.68424 24.4368 2.47461 23.7988C2.27409 23.1608 2.17383 22.3314 2.17383 21.3105V9.63477ZM12.8652 4.48047C12.2272 4.48047 11.7214 4.28906 11.3477 3.90625C10.9831 3.52344 10.8008 2.96289 10.8008 2.22461C10.8008 1.81445 10.8464 1.47266 10.9375 1.19922C11.0378 0.916667 11.1745 0.693359 11.3477 0.529297C11.5299 0.35612 11.7487 0.233073 12.0039 0.160156C12.2591 0.078125 12.5508 0.0371094 12.8789 0.0371094C13.5625 0.0371094 14.082 0.210286 14.4375 0.556641C14.793 0.902995 14.9707 1.45898 14.9707 2.22461C14.9707 2.93555 14.7884 3.49154 14.4238 3.89258C14.0684 4.28451 13.5488 4.48047 12.8652 4.48047ZM11.0742 7.17383H14.5332V26H11.0742V7.17383ZM21.7656 26.2051C21.556 26.2051 21.3099 26.1823 21.0273 26.1367C20.7448 26.1003 20.4531 26.0091 20.1523 25.8633C19.8516 25.7174 19.5553 25.4987 19.2637 25.207C18.972 24.9154 18.7122 24.5189 18.4844 24.0176C18.2565 23.5163 18.0697 22.8919 17.9238 22.1445C17.7871 21.3971 17.7188 20.4902 17.7188 19.4238V13.7227C17.7188 12.6562 17.7871 11.7493 17.9238 11.002C18.0697 10.2546 18.252 9.63021 18.4707 9.12891C18.6986 8.6276 18.9538 8.23568 19.2363 7.95312C19.528 7.66146 19.8151 7.44271 20.0977 7.29688C20.3893 7.15104 20.6673 7.0599 20.9316 7.02344C21.2051 6.98698 21.4375 6.96875 21.6289 6.96875C22.0755 6.96875 22.4766 7.03255 22.832 7.16016C23.1875 7.28776 23.5065 7.45638 23.7891 7.66602C24.0716 7.86654 24.3177 8.09896 24.5273 8.36328C24.7461 8.61849 24.9329 8.8737 25.0879 9.12891L25.416 7.17383H28.1094V32.0977H24.6641V27.0801L24.7598 24.7832C24.4499 25.1751 24.0534 25.5124 23.5703 25.7949C23.0872 26.0684 22.4857 26.2051 21.7656 26.2051ZM22.9414 23.5391C23.1693 23.5391 23.3698 23.5026 23.543 23.4297C23.7253 23.3477 23.8848 23.2474 24.0215 23.1289C24.1673 23.0013 24.2904 22.8555 24.3906 22.6914C24.5 22.5273 24.5911 22.3587 24.6641 22.1855V10.8652C24.4909 10.4824 24.2585 10.1589 23.9668 9.89453C23.6842 9.62109 23.3379 9.48438 22.9277 9.48438C22.6725 9.48438 22.4401 9.53451 22.2305 9.63477C22.0208 9.72591 21.8385 9.89909 21.6836 10.1543C21.5286 10.4004 21.4056 10.7467 21.3145 11.1934C21.2324 11.64 21.1914 12.2142 21.1914 12.916V20.1074C21.1914 20.8092 21.2324 21.3835 21.3145 21.8301C21.4056 22.2767 21.5286 22.6276 21.6836 22.8828C21.8385 23.1289 22.0208 23.3021 22.2305 23.4023C22.4492 23.4935 22.6862 23.5391 22.9414 23.5391ZM31.6914 7.17383H35.1504V21.3242C35.1504 22.1536 35.278 22.7324 35.5332 23.0605C35.7884 23.3796 36.1621 23.5391 36.6543 23.5391C37.0007 23.5391 37.3379 23.4434 37.666 23.252C37.9941 23.0605 38.2904 22.7871 38.5547 22.4316V7.17383H42.0137V26H39.375L39.0332 23.9902H39.0195C38.7461 24.4186 38.4544 24.7786 38.1445 25.0703C37.8438 25.3529 37.5247 25.5807 37.1875 25.7539C36.8594 25.918 36.5221 26.0365 36.1758 26.1094C35.8294 26.1823 35.4831 26.2188 35.1367 26.2188C34.0339 26.2188 33.1816 25.8359 32.5801 25.0703C31.9876 24.3047 31.6914 23.1471 31.6914 21.5977V7.17383ZM50.1758 26.2051C49.3646 26.2051 48.6445 26.0547 48.0156 25.7539C47.3958 25.4531 46.8717 24.9837 46.4434 24.3457C46.015 23.7077 45.6914 22.8919 45.4727 21.8984C45.2539 20.8958 45.1445 19.6927 45.1445 18.2891V14.7344C45.1445 13.5404 45.2311 12.5195 45.4043 11.6719C45.5866 10.8151 45.819 10.0996 46.1016 9.52539C46.3932 8.94206 46.7259 8.48177 47.0996 8.14453C47.4824 7.80729 47.8743 7.55208 48.2754 7.37891C48.6764 7.19661 49.0729 7.08268 49.4648 7.03711C49.8659 6.98242 50.235 6.95508 50.5723 6.95508C51.1921 6.95508 51.7891 7.05078 52.3633 7.24219C52.9375 7.42448 53.4434 7.74349 53.8809 8.19922C54.3184 8.64583 54.6647 9.2474 54.9199 10.0039C55.1842 10.7604 55.3164 11.7038 55.3164 12.834C55.3164 13.2168 55.3027 13.6042 55.2754 13.9961C55.2572 14.388 55.2298 14.7754 55.1934 15.1582C55.1569 15.5319 55.1068 15.8965 55.043 16.252C54.9883 16.6074 54.929 16.9355 54.8652 17.2363H48.6172V19.1504C48.6172 19.9707 48.6491 20.6634 48.7129 21.2285C48.7767 21.7845 48.8815 22.2357 49.0273 22.582C49.1823 22.9193 49.3874 23.1654 49.6426 23.3203C49.9069 23.4661 50.235 23.5391 50.627 23.5391C50.8366 23.5391 51.0417 23.498 51.2422 23.416C51.4427 23.3249 51.6159 23.179 51.7617 22.9785C51.9167 22.778 52.0397 22.5137 52.1309 22.1855C52.222 21.8483 52.2676 21.4336 52.2676 20.9414V20.3535H55.1523V21.0781C55.1523 22.8646 54.724 24.168 53.8672 24.9883C53.0195 25.7995 51.7891 26.2051 50.1758 26.2051ZM52.0898 14.9121C52.099 14.8118 52.1081 14.6797 52.1172 14.5156C52.1263 14.3424 52.1309 14.1647 52.1309 13.9824C52.14 13.8001 52.1445 13.6224 52.1445 13.4492C52.1445 13.2669 52.1445 13.112 52.1445 12.9844C52.1445 11.7448 51.9987 10.8516 51.707 10.3047C51.4154 9.75781 50.9824 9.48438 50.4082 9.48438C50.1074 9.48438 49.8431 9.55729 49.6152 9.70312C49.3874 9.83984 49.2005 10.0768 49.0547 10.4141C48.9089 10.7422 48.7995 11.1797 48.7266 11.7266C48.6536 12.2734 48.6172 12.9525 48.6172 13.7637V14.9121H52.0898ZM58.6387 9.63477H57.1758V7.17383H58.9395L59.6367 2.29297H62.0977V7.17383H65.1055V9.63477H62.0977V21.6113C62.0977 22.0215 62.1341 22.3542 62.207 22.6094C62.2891 22.8555 62.3984 23.0514 62.5352 23.1973C62.6719 23.334 62.8314 23.4251 63.0137 23.4707C63.196 23.5163 63.3874 23.5391 63.5879 23.5391C63.9251 23.5391 64.2214 23.498 64.4766 23.416C64.7409 23.334 64.9915 23.2201 65.2285 23.0742V24.9883C65.028 25.2344 64.8092 25.4349 64.5723 25.5898C64.3444 25.7448 64.1074 25.8724 63.8613 25.9727C63.6152 26.0638 63.3646 26.1276 63.1094 26.1641C62.8542 26.2005 62.6035 26.2188 62.3574 26.2188C61.8743 26.2188 61.4095 26.1549 60.9629 26.0273C60.5163 25.8997 60.1198 25.6582 59.7734 25.3027C59.4271 24.9382 59.1491 24.4368 58.9395 23.7988C58.7389 23.1608 58.6387 22.3314 58.6387 21.3105V9.63477ZM72.0234 26.2051C71.2122 26.2051 70.4922 26.0547 69.8633 25.7539C69.2435 25.4531 68.7194 24.9837 68.291 24.3457C67.8626 23.7077 67.5391 22.8919 67.3203 21.8984C67.1016 20.8958 66.9922 19.6927 66.9922 18.2891V14.7344C66.9922 13.5404 67.0788 12.5195 67.252 11.6719C67.4342 10.8151 67.6667 10.0996 67.9492 9.52539C68.2409 8.94206 68.5736 8.48177 68.9473 8.14453C69.3301 7.80729 69.722 7.55208 70.123 7.37891C70.5241 7.19661 70.9206 7.08268 71.3125 7.03711C71.7135 6.98242 72.0827 6.95508 72.4199 6.95508C73.0397 6.95508 73.6367 7.05078 74.2109 7.24219C74.7852 7.42448 75.291 7.74349 75.7285 8.19922C76.166 8.64583 76.5124 9.2474 76.7676 10.0039C77.0319 10.7604 77.1641 11.7038 77.1641 12.834C77.1641 13.2168 77.1504 13.6042 77.123 13.9961C77.1048 14.388 77.0775 14.7754 77.041 15.1582C77.0046 15.5319 76.9544 15.8965 76.8906 16.252C76.8359 16.6074 76.7767 16.9355 76.7129 17.2363H70.4648V19.1504C70.4648 19.9707 70.4967 20.6634 70.5605 21.2285C70.6243 21.7845 70.7292 22.2357 70.875 22.582C71.0299 22.9193 71.235 23.1654 71.4902 23.3203C71.7546 23.4661 72.0827 23.5391 72.4746 23.5391C72.6842 23.5391 72.8893 23.498 73.0898 23.416C73.2904 23.3249 73.4635 23.179 73.6094 22.9785C73.7643 22.778 73.8874 22.5137 73.9785 22.1855C74.0697 21.8483 74.1152 21.4336 74.1152 20.9414V20.3535H77V21.0781C77 22.8646 76.5716 24.168 75.7148 24.9883C74.8672 25.7995 73.6367 26.2051 72.0234 26.2051ZM73.9375 14.9121C73.9466 14.8118 73.9557 14.6797 73.9648 14.5156C73.974 14.3424 73.9785 14.1647 73.9785 13.9824C73.9876 13.8001 73.9922 13.6224 73.9922 13.4492C73.9922 13.2669 73.9922 13.112 73.9922 12.9844C73.9922 11.7448 73.8464 10.8516 73.5547 10.3047C73.263 9.75781 72.8301 9.48438 72.2559 9.48438C71.9551 9.48438 71.6908 9.55729 71.4629 9.70312C71.235 9.83984 71.0482 10.0768 70.9023 10.4141C70.7565 10.7422 70.6471 11.1797 70.5742 11.7266C70.5013 12.2734 70.4648 12.9525 70.4648 13.7637V14.9121H73.9375ZM79.3516 22.0625C79.3516 21.6523 79.388 21.2559 79.4609 20.873C79.543 20.4902 79.6204 20.1849 79.6934 19.957H82.127C82.127 20.6406 82.1589 21.2148 82.2227 21.6797C82.2956 22.1354 82.4095 22.5 82.5645 22.7734C82.7194 23.0469 82.9245 23.2428 83.1797 23.3613C83.444 23.4798 83.763 23.5391 84.1367 23.5391C84.6562 23.5391 85.0345 23.3932 85.2715 23.1016C85.5085 22.8099 85.627 22.4727 85.627 22.0898C85.627 21.8893 85.5996 21.6979 85.5449 21.5156C85.4902 21.3333 85.4128 21.151 85.3125 20.9688C85.2122 20.7773 85.0892 20.5859 84.9434 20.3945C84.7975 20.2031 84.6335 19.9935 84.4512 19.7656L81.9219 16.7852C81.5938 16.375 81.2747 15.9603 80.9648 15.541C80.6641 15.1126 80.3952 14.6751 80.1582 14.2285C79.9303 13.7728 79.7435 13.2988 79.5977 12.8066C79.4609 12.3145 79.3926 11.7949 79.3926 11.248C79.3926 10.5189 79.5156 9.88542 79.7617 9.34766C80.0169 8.8099 80.3542 8.36328 80.7734 8.00781C81.2018 7.65234 81.694 7.38802 82.25 7.21484C82.806 7.04167 83.3939 6.95508 84.0137 6.95508C84.6973 6.95508 85.3125 7.03711 85.8594 7.20117C86.4062 7.36523 86.8757 7.61133 87.2676 7.93945C87.6595 8.26758 87.9603 8.67773 88.1699 9.16992C88.3796 9.65299 88.4844 10.2181 88.4844 10.8652C88.4844 11.3027 88.4434 11.7266 88.3613 12.1367C88.2884 12.5469 88.2155 12.8978 88.1426 13.1895H85.75C85.7409 12.5697 85.7135 12.0273 85.668 11.5625C85.6224 11.0977 85.5358 10.7148 85.4082 10.4141C85.2897 10.1042 85.1211 9.87174 84.9023 9.7168C84.6927 9.56185 84.4147 9.48438 84.0684 9.48438C83.7676 9.48438 83.5169 9.53451 83.3164 9.63477C83.1159 9.72591 82.9518 9.84896 82.8242 10.0039C82.7057 10.1589 82.6191 10.332 82.5645 10.5234C82.5189 10.7148 82.4961 10.9108 82.4961 11.1113C82.4961 11.5488 82.6009 11.9544 82.8105 12.3281C83.0202 12.7018 83.2982 13.1074 83.6445 13.5449L86.4062 16.7852C86.6068 17.0312 86.8392 17.332 87.1035 17.6875C87.3678 18.0339 87.6185 18.4212 87.8555 18.8496C88.0924 19.2689 88.293 19.7292 88.457 20.2305C88.6211 20.7318 88.7031 21.2559 88.7031 21.8027C88.7031 22.4681 88.5983 23.0742 88.3887 23.6211C88.179 24.1589 87.8691 24.6191 87.459 25.002C87.0488 25.3848 86.543 25.681 85.9414 25.8906C85.349 26.1003 84.6699 26.2051 83.9043 26.2051C83.2754 26.2051 82.6829 26.1367 82.127 26C81.571 25.8542 81.0879 25.6217 80.6777 25.3027C80.2676 24.9746 79.944 24.5462 79.707 24.0176C79.4701 23.4889 79.3516 22.8372 79.3516 22.0625ZM102.689 26.2051C101.104 26.2051 99.8913 25.5534 99.0527 24.25C98.2233 22.9466 97.8086 20.9596 97.8086 18.2891V14.7344C97.8086 13.5404 97.8952 12.5195 98.0684 11.6719C98.2415 10.8151 98.4694 10.0996 98.752 9.52539C99.0436 8.94206 99.3717 8.48177 99.7363 8.14453C100.11 7.80729 100.493 7.55208 100.885 7.37891C101.277 7.19661 101.664 7.08268 102.047 7.03711C102.43 6.98242 102.781 6.95508 103.1 6.95508C103.738 6.95508 104.321 7.04167 104.85 7.21484C105.378 7.37891 105.834 7.63411 106.217 7.98047C106.6 8.31771 106.896 8.74609 107.105 9.26562C107.315 9.78516 107.42 10.3958 107.42 11.0977C107.42 11.5352 107.397 11.9134 107.352 12.2324C107.315 12.5423 107.26 12.8431 107.188 13.1348H104.426V12.5059C104.426 11.5579 104.312 10.8197 104.084 10.291C103.865 9.75326 103.501 9.48438 102.99 9.48438C102.708 9.48438 102.462 9.55273 102.252 9.68945C102.042 9.81706 101.865 10.0404 101.719 10.3594C101.582 10.6784 101.477 11.1068 101.404 11.6445C101.34 12.1823 101.309 12.8568 101.309 13.668V19.0137C101.309 19.834 101.336 20.5312 101.391 21.1055C101.445 21.6797 101.541 22.1491 101.678 22.5137C101.814 22.8691 101.997 23.1289 102.225 23.293C102.452 23.457 102.735 23.5391 103.072 23.5391C103.245 23.5391 103.414 23.498 103.578 23.416C103.742 23.3249 103.883 23.179 104.002 22.9785C104.13 22.778 104.23 22.5137 104.303 22.1855C104.385 21.8483 104.426 21.4336 104.426 20.9414V20.3535H107.406V21.0781C107.406 22.8646 107.01 24.168 106.217 24.9883C105.433 25.7995 104.257 26.2051 102.689 26.2051ZM114.967 26.2051C114.566 26.2051 114.156 26.1732 113.736 26.1094C113.326 26.0456 112.925 25.9134 112.533 25.7129C112.15 25.5124 111.786 25.2253 111.439 24.8516C111.102 24.4779 110.806 23.9857 110.551 23.375C110.296 22.7643 110.095 22.0124 109.949 21.1191C109.803 20.2259 109.73 19.1595 109.73 17.9199V14.9668C109.73 13.7454 109.803 12.7018 109.949 11.8359C110.104 10.9609 110.309 10.2272 110.564 9.63477C110.829 9.04232 111.134 8.57292 111.48 8.22656C111.827 7.87109 112.191 7.60221 112.574 7.41992C112.966 7.22852 113.367 7.10547 113.777 7.05078C114.188 6.98698 114.589 6.95508 114.98 6.95508C115.354 6.95508 115.742 6.98242 116.143 7.03711C116.544 7.0918 116.936 7.21029 117.318 7.39258C117.701 7.56576 118.061 7.83008 118.398 8.18555C118.745 8.5319 119.046 9.0013 119.301 9.59375C119.565 10.1862 119.77 10.9245 119.916 11.8086C120.071 12.6836 120.148 13.7363 120.148 14.9668V17.9199C120.148 19.1413 120.071 20.194 119.916 21.0781C119.761 21.9622 119.551 22.7096 119.287 23.3203C119.023 23.931 118.717 24.4277 118.371 24.8105C118.025 25.1842 117.66 25.4759 117.277 25.6855C116.895 25.8952 116.503 26.0319 116.102 26.0957C115.71 26.1686 115.331 26.2051 114.967 26.2051ZM114.994 23.5391C115.304 23.5391 115.564 23.4616 115.773 23.3066C115.992 23.1426 116.165 22.8783 116.293 22.5137C116.43 22.1491 116.525 21.6706 116.58 21.0781C116.644 20.4766 116.676 19.7337 116.676 18.8496V14.2148C116.676 13.3307 116.644 12.5879 116.58 11.9863C116.525 11.3848 116.43 10.9017 116.293 10.5371C116.165 10.1634 115.992 9.89453 115.773 9.73047C115.564 9.56641 115.304 9.48438 114.994 9.48438C114.666 9.48438 114.388 9.56641 114.16 9.73047C113.941 9.89453 113.759 10.1634 113.613 10.5371C113.467 10.9017 113.363 11.3848 113.299 11.9863C113.235 12.5879 113.203 13.3307 113.203 14.2148V18.8496C113.203 19.7337 113.235 20.4766 113.299 21.0781C113.363 21.6706 113.467 22.1491 113.613 22.5137C113.759 22.8783 113.941 23.1426 114.16 23.3066C114.388 23.4616 114.666 23.5391 114.994 23.5391ZM123.211 7.17383H125.891L126.191 9.18359V9.19727C126.465 8.76888 126.757 8.41341 127.066 8.13086C127.376 7.83919 127.695 7.60677 128.023 7.43359C128.361 7.26042 128.702 7.13737 129.049 7.06445C129.404 6.99154 129.755 6.95508 130.102 6.95508C130.84 6.95508 131.464 7.13281 131.975 7.48828C132.485 7.84375 132.872 8.37695 133.137 9.08789C133.41 8.67773 133.697 8.33594 133.998 8.0625C134.308 7.78906 134.627 7.57031 134.955 7.40625C135.283 7.24219 135.616 7.12826 135.953 7.06445C136.29 6.99154 136.632 6.95508 136.979 6.95508C138.072 6.95508 138.915 7.34245 139.508 8.11719C140.109 8.88281 140.41 10.0358 140.41 11.5762V26H136.951V11.6992C136.951 11.2891 136.919 10.9427 136.855 10.6602C136.792 10.3776 136.696 10.1497 136.568 9.97656C136.441 9.80339 136.277 9.68034 136.076 9.60742C135.876 9.52539 135.634 9.48438 135.352 9.48438C135.033 9.48438 134.714 9.60286 134.395 9.83984C134.076 10.0677 133.784 10.3867 133.52 10.7969C133.529 10.8789 133.533 10.9609 133.533 11.043C133.533 11.125 133.533 11.207 133.533 11.2891V26H130.074V11.6992C130.074 11.2891 130.042 10.9427 129.979 10.6602C129.915 10.3776 129.819 10.1497 129.691 9.97656C129.564 9.80339 129.4 9.68034 129.199 9.60742C128.999 9.52539 128.757 9.48438 128.475 9.48438C128.165 9.48438 127.85 9.59831 127.531 9.82617C127.212 10.054 126.925 10.3685 126.67 10.7695V26H123.211V7.17383Z" fill="black"/>
<path d="M90.9043 23.5527C90.9043 22.5866 91.0957 21.8939 91.4785 21.4746C91.8613 21.0553 92.3809 20.8457 93.0371 20.8457C93.7207 20.8457 94.2493 21.069 94.623 21.5156C94.9967 21.9622 95.1836 22.6413 95.1836 23.5527C95.1836 24.3913 94.9922 25.043 94.6094 25.5078C94.2357 25.9635 93.707 26.1914 93.0234 26.1914C92.3763 26.1914 91.8613 25.9681 91.4785 25.5215C91.0957 25.0749 90.9043 24.4186 90.9043 23.5527Z" fill="#ACD038"/>
</svg>
